<svg id="Layer_1" data-name="Layer 1" xmlns="http://www.w3.org/2000/svg" viewBox="0 0 1024 1024"><defs><style>.cls-1,.cls-3{fill:#fff;}.cls-1,.cls-2,.cls-4,.cls-5,.cls-6{stroke:#000;}.cls-1,.cls-2,.cls-4{stroke-miterlimit:10;}.cls-2,.cls-5{fill:#a05c84;}.cls-4,.cls-6{fill:none;}.cls-5,.cls-6{stroke-linecap:round;stroke-linejoin:round;stroke-width:4px;}</style></defs><rect class="cls-1" x="-43.63" y="-7.52" width="1103.62" height="1080.91"/><rect class="cls-2" x="-25.21" y="-185.14" width="1103.62" height="490.16"/><path class="cls-3" d="M381.32,503.8q23.3-17.37,46.6-34.75c4.71-3.5,10-4.91,15.93-5.53,13.64-1.42,27.19-3.77,40.75-5.85,3.14-.48,6.21-1.37,10-2.24a86.16,86.16,0,0,0-21,.26c-10.26,1.47-20.56,2.58-30.83,3.92-5.28.68-9.82,3.16-14.21,6a350.18,350.18,0,0,1-54.27,29.15c-4.58,2-9.4,3.33-14.11,5l-.78.27c-7.22,2.41-7.78,5.77-3.38,12.72,2.16,3.42,5.82,5.11,10,6.17C369.5,512.07,375.57,508.09,381.32,503.8Zm67.87-6.6c-2.36.12-4.7,1.76-6.94,2.93-13.64,7.1-27.29,14.2-40.84,21.5-2,1.08-3.5,3.18-5.22,4.81,1.89,1.53,3.59,3.51,5.73,4.52,5.4,2.53,10.87,1.63,16.09-.83a3.11,3.11,0,0,0,1.26-2.26c.17-1.89-.11-3.82,0-5.72a11.72,11.72,0,0,1,5-9c7.24-5.32,15.45-7,24.21-7a5.4,5.4,0,0,0,2.4-.24c4.88-2.57,9.71-5.25,15.17-8.23C459.83,497.47,454.49,496.93,449.19,497.2Zm25.48-1a18.26,18.26,0,0,0-11.19,4.19c-2.69,2.19-5.92,3.72-9.11,5.66,4,.38,8,.38,11.7,1.24a9.19,9.19,0,0,0,8-1.7c4.8-3.37,9.78-6.5,14.68-9.73l-.09-.59C484,495.61,479.35,496,474.67,496.22Z"/><path class="cls-4" d="M381.32,503.8q23.3-17.37,46.6-34.75c4.71-3.5,10-4.91,15.93-5.53,13.64-1.42,27.19-3.77,40.75-5.85,3.14-.48,6.21-1.37,10-2.24a86.16,86.16,0,0,0-21,.26c-10.26,1.47-20.56,2.58-30.83,3.92-5.28.68-9.82,3.16-14.21,6a350.18,350.18,0,0,1-54.27,29.15c-4.58,2-9.4,3.33-14.11,5l-.78.27c-7.22,2.41-7.78,5.77-3.38,12.72,2.16,3.42,5.82,5.11,10,6.17C369.5,512.07,375.57,508.09,381.32,503.8Z"/><path class="cls-4" d="M449.19,497.2c-2.36.12-4.7,1.76-6.94,2.93-13.64,7.1-27.29,14.2-40.84,21.5-2,1.08-3.5,3.18-5.22,4.81,1.89,1.53,3.59,3.51,5.73,4.52,5.4,2.53,10.87,1.63,16.09-.83a3.11,3.11,0,0,0,1.26-2.26c.17-1.89-.11-3.82,0-5.72a11.72,11.72,0,0,1,5-9c7.24-5.32,15.45-7,24.21-7a5.4,5.4,0,0,0,2.4-.24c4.88-2.57,9.71-5.25,15.17-8.23C459.83,497.47,454.49,496.93,449.19,497.2Z"/><path class="cls-4" d="M474.67,496.22a18.26,18.26,0,0,0-11.19,4.19c-2.69,2.19-5.92,3.72-9.11,5.66,4,.38,8,.38,11.7,1.24a9.19,9.19,0,0,0,8-1.7c4.8-3.37,9.78-6.5,14.68-9.73l-.09-.59C484,495.61,479.35,496,474.67,496.22Z"/><path class="cls-3" d="M661.59,505.76c-3.16-.76-7.81,1.32-20.36.5C638,506.05,629.05,505,605.11,489c-17.43-11.62-34.59-23.64-51.57-35.9-7.84-5.66-16-6.58-24.82-3.95-3.57,1.06-6.94,2.82-10.52,3.8-7,1.94-14.06,3.86-21.19,5.23-13.5,2.59-23,2.25-36.54,4.47-1.56.25-13.76,1.54-21.59,2.34a35.7,35.7,0,0,0-9.06,2.21,31.94,31.94,0,0,0-3.81,2c-.56.37-1,.69-1.33.92l-.39.29c-1.47,1.12-18.59,16.56-32,25.5-12.47,8.29-18.7,12.43-21.8,13.65-1.85.72-6.8,2.53-7.45,6.08a6.6,6.6,0,0,0,1.14,4.46c2.21,3.78,6.34,5.07,8.24,5.64,4.59,1.37,9.48,1.15,16.42-.88,6.23-1.82,10.95-4.18,17.2-7.68,17.4-9.75,28.4-14.51,40.64-20.74a7.17,7.17,0,0,1,2.84-.62c10.08-.51,20.18-.78,30.24-1.52,7.5-.55,14.72-.13,21.64,3,6.55,3,13.08,6,19.67,8.9,4.25,1.84,6.13,5.14,6.7,9.52.24,1.86-.3,3.18-2.21,3.37-2.42.23-5,.63-7.3.16-11.08-2.2-13.91-.53-34.45-7.31-8.61-2.84-6.67-2.7-10.22-3.6-10.52-2.64-19.07-1.66-30.36-.26a52.8,52.8,0,0,0-14.45,3.71c-3.76,1.35-7.56,6.49-7.56,12.52a14.85,14.85,0,0,0,5,10.7,23.68,23.68,0,0,0,4.32,2.73,50.61,50.61,0,0,0,11.39,4c26.2,6.76,20.86,6.05,26.92,7.17,23.78,4.42,27.32.77,41,6.25,6.75,2.7,6.07,3.66,17.55,9.72A202.81,202.81,0,0,0,562,579.69c27.57,8.54,33.15-1.6,57.51,7.44,12.86,4.78,15.62,9.07,23.07,7.7,15.89-2.94,23.45-26.19,25.52-32.54C676.53,536.37,670.48,507.9,661.59,505.76Z"/><path d="M661.09,507.83a10.27,10.27,0,0,0-3.06-.07l-3.76.31a76.72,76.72,0,0,1-7.73.18c-1.28,0-2.56-.1-3.84-.19-.64-.06-1.26-.09-1.93-.16s-1.35-.16-2-.28a40.11,40.11,0,0,1-7.5-2.32,115.3,115.3,0,0,1-13.61-6.95c-4.37-2.56-8.62-5.29-12.8-8.12-16.71-11.22-33.44-22.42-50-33.92-1-.7-2.09-1.49-3.08-2.11a14.62,14.62,0,0,0-1.52-.92,15.44,15.44,0,0,0-1.57-.8,22.4,22.4,0,0,0-6.6-2c-4.54-.64-9.12.3-13.51,1.74-2.2.74-4.5,1.72-7,2.5a35.36,35.36,0,0,1-3.86,1l-3.69.82c-4.92,1.16-9.85,2.37-14.86,3.28-10.05,1.94-20.26,2.24-30.15,3.26-2.48.26-4.95.57-7.41,1-1.22.21-2.5.28-3.75.43l-3.76.42c-5,.55-10,1.17-15,1.82l-.69-.07a1.24,1.24,0,0,0,.57.08h0l-.1,0-.2,0-.4.06-.81.13-1.61.33a31.78,31.78,0,0,0-3.12.84,18.89,18.89,0,0,0-2.89,1.2c-.47.24-.94.5-1.4.77l-.69.42-.34.21-.16.11-.08,0,0,0h0a1.83,1.83,0,0,0,.34-.28l-.35.29a21.82,21.82,0,0,0-2,1.57L423,474.39l-4.28,3.75c-2.86,2.5-5.76,5-8.74,7.32a190.15,190.15,0,0,1-18.57,13.39L381.79,505,377,508c-1.65,1-3.26,2-5.12,2.93l-.73.33-.65.27c-.42.18-.82.36-1.21.55a14.3,14.3,0,0,0-2.18,1.26,6.32,6.32,0,0,0-1.57,1.51,2.67,2.67,0,0,0-.53,1.53,4,4,0,0,0,.5,1.77,9.39,9.39,0,0,0,.6,1,9.8,9.8,0,0,0,.68.88,10.27,10.27,0,0,0,3.81,2.59,20.82,20.82,0,0,0,9.92,1.45,64,64,0,0,0,10.61-2,47.77,47.77,0,0,0,10.2-4.28c3.28-1.75,6.56-3.71,9.87-5.57,6.62-3.74,13.33-7.33,20.14-10.66,3.39-1.7,6.82-3.3,10.19-5l2.54-1.26,1.26-.63a7.94,7.94,0,0,1,1.71-.69,14,14,0,0,1,3.27-.39l2.84-.13c7.58-.32,15.13-.55,22.65-1a102.07,102.07,0,0,1,11.55-.34A41,41,0,0,1,499,494.47c.94.33,1.87.7,2.78,1.11l2.6,1.19,5.14,2.37,10.3,4.75,1.29.59,1.36.64a13.23,13.23,0,0,1,2.7,1.8,12,12,0,0,1,3.51,5.44,16.71,16.71,0,0,1,.68,3,7,7,0,0,1,.06,1.8,4.13,4.13,0,0,1-.82,2.15,3.82,3.82,0,0,1-2,1.28,6.05,6.05,0,0,1-1,.16l-.7.07c-.93.09-1.9.2-2.9.25a17.15,17.15,0,0,1-3.11-.07c-.27,0-.53-.07-.8-.12l-.71-.14-1.37-.26q-2.73-.46-5.53-.8c-3.73-.43-7.63-.71-11.43-1.4s-7.56-1.53-11.29-2.45a82.59,82.59,0,0,1-11-3.5l-1.35-.58c-.42-.19-.72-.31-1.09-.44-.74-.27-1.66-.51-2.52-.74a50.78,50.78,0,0,0-5.3-1.21,57.82,57.82,0,0,0-11-.88c-3.73.07-7.48.4-11.23.84a55.21,55.21,0,0,0-10.86,2.22c-.87.29-1.74.61-2.62.94l-1.34.5a7.84,7.84,0,0,0-1.12.49,10.52,10.52,0,0,0-3.59,3.47,13.33,13.33,0,0,0-2,9.88,13.06,13.06,0,0,0,2,4.72,14.62,14.62,0,0,0,1.66,2l.46.45a5.19,5.19,0,0,0,.45.37c.33.25.7.5,1.08.74.76.48,1.56.94,2.38,1.38s1.61.82,2.45,1.18a44.58,44.58,0,0,0,5.22,1.8c3.56,1,7.29,1.85,10.95,2.81l11.05,2.73,5.48,1.39c1.66.37,3.59.59,5.43.84q5.56.78,11.12,1.15c3.72.29,7.4.42,11.24.63a34,34,0,0,1,5.85.73,35,35,0,0,1,5.71,1.87l2.71,1.19c.88.42,1.77.81,2.66,1.2a46.13,46.13,0,0,1,5.27,2.62c3.3,2.06,6.4,3.95,9.78,5.65,6.71,3.4,13.57,6.48,20.55,9.18s14.07,5.12,21.06,7.54a58.89,58.89,0,0,0,10.8,2.55,57.53,57.53,0,0,0,11.14.16c3.74-.23,7.56-.58,11.47-.51a48.63,48.63,0,0,1,11.64,1.5l2.82.77c.95.25,1.85.61,2.77.91,1.85.6,3.66,1.28,5.45,2,3.57,1.45,7.05,3.3,10.34,4.89a16,16,0,0,0,4.78,1.6,12.38,12.38,0,0,0,4.84-.37,20.33,20.33,0,0,0,8.85-5.16,40.3,40.3,0,0,0,6.6-8.54,72.71,72.71,0,0,0,4.82-9.92,107.33,107.33,0,0,0,3.58-10.55,83.45,83.45,0,0,0,2.21-10.85,81,81,0,0,0,0-22.1,49,49,0,0,0-2.65-10.55,21.21,21.21,0,0,0-2.4-4.59,9.6,9.6,0,0,0-1.56-1.76,4.93,4.93,0,0,0-1.69-.93Zm.95-4a8.65,8.65,0,0,1,3.28,1.73,13.7,13.7,0,0,1,2.21,2.46,25.35,25.35,0,0,1,2.86,5.44,53,53,0,0,1,2.88,11.41A86.49,86.49,0,0,1,671,559.46a107.62,107.62,0,0,1-3.71,10.95,76,76,0,0,1-5.09,10.47,44.51,44.51,0,0,1-7.25,9.36,24.37,24.37,0,0,1-10.51,6.23,16.24,16.24,0,0,1-6.4.49,20,20,0,0,1-6-1.92c-3.53-1.69-6.75-3.39-10.2-4.78-1.7-.71-3.44-1.35-5.19-1.92-.87-.28-1.73-.63-2.62-.86l-2.65-.72A69,69,0,0,0,600.59,585c-3.65-.28-7.39-.12-11.21-.08a128,128,0,0,1-23.07-1.83c-1.88-.42-3.8-.8-5.65-1.32s-3.68-1.1-5.49-1.74q-5.43-1.92-10.67-4.27a226.06,226.06,0,0,1-20.31-10.6c-1.64-1-3.3-1.93-4.92-3s-3.23-2.08-4.79-3a28,28,0,0,0-10.27-3.71c-3.62-.55-7.09-.57-10.81-.88l-5.67-.37c-1.91-.16-3.84-.35-5.75-.59q-5.73-.78-11.35-2c-1.88-.41-3.71-.76-5.7-1.36s-3.6-1.26-5.42-1.82c-3.58-1.16-7.21-2.2-10.85-3.23s-7.28-1.92-11-3.05a53.71,53.71,0,0,1-5.47-2c-.9-.39-1.8-.83-2.65-1.3s-1.69-1-2.53-1.48c-.42-.27-.83-.55-1.25-.87a5.54,5.54,0,0,1-.64-.54c-.19-.18-.37-.35-.55-.54a17.53,17.53,0,0,1-1.93-2.37,15.39,15.39,0,0,1-.09-17.45,13,13,0,0,1,4.5-4.32,9.83,9.83,0,0,1,1.47-.66l1.32-.49c.89-.34,1.8-.68,2.72-1a57,57,0,0,1,11.35-2.34c3.76-.48,7.52-1.05,11.36-1.44A66.84,66.84,0,0,1,467,505a48.43,48.43,0,0,1,5.88.73c1,.19,1.91.37,3,.66a15.88,15.88,0,0,1,1.57.55l1.28.5c3.38,1.24,7,2.46,10.49,3.77a107.08,107.08,0,0,0,10.64,3.43,73.63,73.63,0,0,0,11,2c1.89.23,3.8.47,5.7.79l1.42.26.69.13.6.09a15.52,15.52,0,0,0,2.56,0c.89-.06,1.8-.16,2.75-.27l.71-.07.45-.07a.6.6,0,0,0,.33-.18c.35-.16,0-2.55-.48-4a8.69,8.69,0,0,0-2.59-4,9.6,9.6,0,0,0-2-1.31l-1.21-.56-1.3-.58L508,502.35l-5.2-2.3-2.58-1.14c-.82-.35-1.65-.67-2.5-1a37.12,37.12,0,0,0-10.61-1.81,98.28,98.28,0,0,0-11.13.49c-7.59.54-15.17.83-22.71,1.2l-2.83.14a10.63,10.63,0,0,0-2.35.26,3.7,3.7,0,0,0-.9.39l-1.28.65-2.54,1.28c-3.41,1.69-6.79,3.39-10.21,5-6.8,3.3-13.59,6.53-20.29,10-3.36,1.71-6.63,3.55-10,5.35s-6.92,3.4-10.53,4.92A40.24,40.24,0,0,1,380.9,529a25.82,25.82,0,0,1-6.26-.21,20.84,20.84,0,0,1-3.07-.75,23.24,23.24,0,0,1-2.93-1.14,14.4,14.4,0,0,1-5.26-4.07,14.13,14.13,0,0,1-1.71-2.9,8,8,0,0,1-.76-3.71,6.6,6.6,0,0,1,1.44-3.69,10,10,0,0,1,2.59-2.31,17.33,17.33,0,0,1,2.79-1.46c.47-.2.94-.39,1.4-.56l.67-.24.57-.23a40.48,40.48,0,0,0,4.79-2.62c1.59-1,3.15-2,4.73-3.06,3.13-2.1,6.27-4.21,9.37-6.37,6.24-4.2,12-8.9,17.91-13.64l8.7-7.2,4.33-3.65c.72-.61,1.44-1.22,2.2-1.83a23.49,23.49,0,0,1,2.53-1.79l-.35.29a1.67,1.67,0,0,1,.38-.31l0,0,.06,0,.1-.06.2-.11.39-.23.79-.44c.54-.28,1.08-.55,1.64-.81a23.52,23.52,0,0,1,3.48-1.29c1.18-.33,2.34-.58,3.52-.8l1.75-.28.89-.11.44-.05.23,0h.12l.13,0a2.19,2.19,0,0,1,.68.07l-.69-.07c5-.43,10-.89,15-1.42,2.49-.28,5-.49,7.47-.86s5-.75,7.54-1l15-1.61a147.45,147.45,0,0,0,14.68-2.49q7.26-1.67,14.44-3.86c1.2-.37,2.39-.76,3.58-1.16s2.24-.76,3.36-1.22c2.18-.93,4.46-2,7-2.88a32.43,32.43,0,0,1,8-1.53A28.32,28.32,0,0,1,550.56,449c.59.33,1.17.67,1.72,1s1.12.73,1.65,1.13c1.1.77,2,1.5,3.07,2.26,16.12,12,32.36,23.85,49.13,34.91,4.2,2.73,8.46,5.36,12.81,7.8a95.55,95.55,0,0,0,13.42,6.37,35.52,35.52,0,0,0,6.94,1.91,16.91,16.91,0,0,0,1.73.18l1.84.07c1.23,0,2.46,0,3.69,0a72,72,0,0,0,7.34-.49l3.73-.47a13.81,13.81,0,0,1,4.46,0Z"/><path class="cls-3" d="M447.27,508.17q5.31-3.19,10.66-6.4,5.7-3.42,11.38-6.77"/><path d="M446.73,507.27q10.75-7,21.56-14a2,2,0,1,1,2.17,3.37l-.13.08q-11.26,6.13-22.51,12.35a1.05,1.05,0,0,1-1.09-1.8Z"/><path class="cls-3" d="M391.44,524.31c.71,1.86,5.32,5.66,10.48,6.65a31.79,31.79,0,0,0,19.69-2.48"/><path d="M393.48,523.53c.22,0,.62.34,1,.63l1.34,1a19.24,19.24,0,0,0,2.95,2,16.18,16.18,0,0,0,3.25,1.32c.54.17,1.22.28,1.82.43s1.26.2,1.89.31a33.34,33.34,0,0,0,7.74.13,31.92,31.92,0,0,0,3.87-.66c1.27-.3,2.53-.72,3.81-.93h.1a.85.85,0,0,1,1,.71.86.86,0,0,1-.24.75,10.86,10.86,0,0,1-3.81,2.16,35.08,35.08,0,0,1-12.77,2.31c-.73,0-1.47-.06-2.21-.13s-1.43-.12-2.23-.27a18.93,18.93,0,0,1-4.49-1.41,20,20,0,0,1-4-2.35,11.24,11.24,0,0,1-1.73-1.72,7,7,0,0,1-1.34-2.69.76.76,0,0,1,.56-.93h0Z"/><path class="cls-3" d="M466.07,507.31a9.49,9.49,0,0,0,3.9.16,9.84,9.84,0,0,0,4.14-1.86c2.91-2.1,8.39-6.05,15.43-11.31"/><path d="M466.32,506.21a9.57,9.57,0,0,0,3,.2,11.64,11.64,0,0,0,2.94-.78,5.12,5.12,0,0,0,1.32-.91l1.39-1,2.76-2.08c1.84-1.38,3.65-2.8,5.45-4.24s3.56-2.92,5.34-4.38l0,0a1.63,1.63,0,0,1,2.08,2.52l-.15.11c-1.94,1.26-3.91,2.46-5.8,3.78s-3.82,2.59-5.7,3.93l-2.81,2-1.4,1c-.48.31-1.05.62-1.57,1a8.15,8.15,0,0,1-3.6,1.34,10.31,10.31,0,0,1-3.81-.27A1.11,1.11,0,0,1,465,507,1.13,1.13,0,0,1,466.32,506.21Z"/><path class="cls-3" d="M496.84,458.25a86.51,86.51,0,0,0-21-.28c-10.29,1.2-20.62,2-30.92,3.12-5.29.55-9.9,2.91-14.35,5.67a350.86,350.86,0,0,1-55,27.75c-4.62,1.84-9.48,3.09-14.23,4.61l-.78.25c-3.35,1-5.29,2.27-6,4-1.22,3,.68,6.72,2.3,8.61a11.35,11.35,0,0,0,6.24,3.61"/><path d="M496.84,458.25c-7.17.53-14.06.49-20.91,1.42l-21,2.53-10.45,1.27a27.82,27.82,0,0,0-9.09,3.35c-1.48.81-2.88,1.71-4.39,2.66s-3,1.9-4.52,2.83q-4.54,2.79-9.17,5.45a328.77,328.77,0,0,1-38.34,18.7l-2.49,1c-.86.34-1.72.65-2.59,1-1.72.6-3.45,1.15-5.15,1.67l-5,1.53-2.5.8a15.82,15.82,0,0,0-2.06.79,5.68,5.68,0,0,0-1.38.89,1.35,1.35,0,0,0-.42.75,5.29,5.29,0,0,0,.57,3.09,14.19,14.19,0,0,0,.91,1.78,10.58,10.58,0,0,0,1.14,1.59,17.53,17.53,0,0,0,3.4,3l.1.06a1.44,1.44,0,0,1,.35,2,1.45,1.45,0,0,1-1,.61,9.84,9.84,0,0,1-6.13-1.45,10.58,10.58,0,0,1-2.56-2.17,12.56,12.56,0,0,1-1.82-2.74,12,12,0,0,1-1.08-3.26,9.59,9.59,0,0,1,.07-3.91,7.55,7.55,0,0,1,.8-2.06,7.85,7.85,0,0,1,1.35-1.72,11.59,11.59,0,0,1,3-2,22.59,22.59,0,0,1,2.88-1.11l2.54-.81,5.08-1.53c1.67-.5,3.31-1,4.92-1.58q1.2-.42,2.37-.87l2.42-1c6.48-2.63,12.9-5.4,19.24-8.37s12.56-6.15,18.72-9.48q4.64-2.47,9.19-5.1,2.28-1.3,4.53-2.65c1.5-.88,3.1-1.84,4.75-2.68a32,32,0,0,1,10.79-3.55c1-.12,1.81-.16,2.71-.24l2.63-.22,5.27-.43,21.09-1.73A50.81,50.81,0,0,1,496.84,458.25Z"/><path d="M736.42,204.42a1.5,1.5,0,0,0,0-3,1.5,1.5,0,0,0,0,3Z"/><path d="M508.05,94a1.5,1.5,0,0,0,0-3,1.5,1.5,0,0,0,0,3Z"/><path d="M508.05,94a1.5,1.5,0,0,0,0-3,1.5,1.5,0,0,0,0,3Z"/><path class="cls-5" d="M474.37,612.2c-14.51-11.71-30.23-15.48-37.86-17.23-9-2.07-23.28-5.33-40.08-1-12.87,3.3-21.07,9.46-30.07,16.22-7.9,5.92-17.33,13-24.49,25.33A67.35,67.35,0,0,0,333,672c.77,27,17,45.36,21.61,50.24A92.62,92.62,0,0,0,412,750c22.39,2.17,39-4.55,52.11-9.84a63.46,63.46,0,0,0,20.26-13.47c22.4-21.9,18.69-53.39,17.81-60.81C501.28,658.05,498.22,631.45,474.37,612.2Zm-30.06,89.19a43.9,43.9,0,0,1-31.18,9.12c-3.86-.39-16.55-2.2-25.61-12.16-10.94-12-10.25-29-3.34-40.54a39.3,39.3,0,0,1,15.59-14.19c3.34-1.73,14.8-7.42,29-4A38.21,38.21,0,0,1,451,654.77c1.77,2.46,7.55,10.73,6.68,22.29C456.63,690.85,446.88,699.3,444.31,701.39Z"/><path class="cls-6" d="M382.45,599.36c26.64-13.17,39-22,48.21-26.68,8.88-4.56,12.37-6.84,21.57-12.17a87.32,87.32,0,0,1,19-8.1c9.19-2.54,31.71,3.71,40,7.85a110,110,0,0,1,31.09,24.24c8.48,9.73,11.22,18.61,13.11,29.73,3.38,19.93-.28,20.37-3,29.39-3.08,10.36-11.16,21.73-11.82,22.66a122.76,122.76,0,0,1-9.74,11.8c-18.39,20.51-27.62,30.8-29.18,32.43-5.12,5.33-9.25,10.27-15.7,15.62a105.18,105.18,0,0,1-10.1,7.35"/><path class="cls-6" d="M428.12,640.58c-17.11,14.75,7.74,45.69,28.55,38"/><path class="cls-6" d="M462,762.05q-2.08,10.26-4.16,20.52c-.49,2.42-.61,5.49,2.08,6.66,4,1.73,7.58-2.74,8.49-6.28a79.23,79.23,0,0,0,2.19-26.62l-6.48.76a8.57,8.57,0,0,1-1.1,6.12c.14.65,0,7,.1,7.62,3.17.15,5.1-2.93,4.89-5.46s-1.63-5-1.34-7.5a12.77,12.77,0,0,0-2.39,11.89"/><path class="cls-6" d="M447.82,749.94c-1.15,19.27-3,34.94-4.48,45.7-3.37,24.63-6.76,71.62-10.14,97.3a222.55,222.55,0,0,0-3.13,24.83c-.33,5,.59,7.43,1.54,12.66.69,3.79.24.83,1.9,9.63.32,1.69.74,3.9,1.27,6.34,1.69,7.77.11,5.66,14.91,8.36,7.87,1.44,9.05-.19,13.32-7.86s13.72-22.51,14.27-24.57c4.13-15.31,8.65-51.26,10.47-66.89,3.17-27.28,5.39-71.2,14.8-145.61"/></svg>